<svg width="60" height="60" viewBox="0 0 60 60" fill="none" xmlns="http://www.w3.org/2000/svg">
<path d="M10 30C10 18.9543 18.9543 10 30 10V10C41.0457 10 50 18.9543 50 30V30C50 41.0457 41.0457 50 30 50V50C18.9543 50 10 41.0457 10 30V30Z" fill="#C4C4C4"/>
<circle cx="30" cy="25.5556" r="8.88889" fill="white"/>
<path fill-rule="evenodd" clip-rule="evenodd" d="M43.9429 44.0809C43.9993 44.1783 43.9816 44.3012 43.9007 44.3795C40.3021 47.8591 35.401 50.0001 29.9998 50.0001C24.599 50.0001 19.6982 47.8594 16.0997 44.3801C16.0188 44.3019 16.0011 44.179 16.0575 44.0816C18.6012 39.6873 23.8893 36.6667 30.0004 36.6667C36.1112 36.6667 41.399 39.687 43.9429 44.0809Z" fill="white"/>
</svg>
