<svg width="40" height="40" viewBox="0 0 40 40" fill="none" xmlns="http://www.w3.org/2000/svg">
<path d="M0 20C0 8.95431 8.95431 0 20 0C31.0457 0 40 8.95431 40 20C40 31.0457 31.0457 40 20 40C8.95431 40 0 31.0457 0 20Z" fill="#C4C4C4"/>
<circle cx="20.0002" cy="15.5555" r="8.88889" fill="white"/>
<path fill-rule="evenodd" clip-rule="evenodd" d="M33.9431 34.0808C33.9995 34.1782 33.9818 34.3011 33.9009 34.3793C30.3023 37.859 25.4012 40 20.0001 40C14.5993 40 9.69849 37.8592 6.09992 34.38C6.01902 34.3018 6.00134 34.1788 6.05772 34.0815C8.60148 29.6872 13.8895 26.6666 20.0006 26.6666C26.1114 26.6666 31.3992 29.6868 33.9431 34.0808Z" fill="white"/>
</svg>
